<svg 
 xmlns="http://www.w3.org/2000/svg"
 xmlns:xlink="http://www.w3.org/1999/xlink"
 width="1803.5px" height="1310.5px">
<path fill-rule="evenodd"  stroke="rgb(0, 0, 0)" stroke-width="1px" stroke-linecap="butt" stroke-linejoin="miter" fill="rgb(193, 139, 68)"
 d="M901.500,408.500 L1701.500,408.500 C1701.500,408.500 1801.500,408.500 1801.500,458.500 C1801.500,508.500 1701.500,508.500 1701.500,508.500 C1701.500,508.500 1641.500,1308.500 1601.500,1308.500 C1561.500,1308.500 225.500,1308.500 201.500,1308.500 C177.500,1308.500 101.500,508.500 101.500,508.500 C40.489,507.072 1.500,508.500 1.500,458.500 C1.500,408.500 40.489,409.928 101.500,408.500 L901.500,408.500 Z"/>
<path fill-rule="evenodd"  stroke="rgb(0, 0, 0)" stroke-width="1px" stroke-linecap="butt" stroke-linejoin="miter" opacity="0.302" fill="rgb(157, 8, 8)"
 d="M109.744,507.777 L1691.131,507.809 C1696.690,507.809 1701.175,508.312 1701.147,508.932 L1699.527,545.749 C1699.500,546.363 1694.997,546.854 1689.472,546.848 L117.037,544.910 C112.040,544.904 107.896,544.426 107.781,543.843 L100.859,508.844 C100.742,508.254 104.720,507.776 109.744,507.777 Z"/>
<path fill-rule="evenodd"  stroke="rgb(0, 0, 0)" stroke-width="1px" stroke-linecap="butt" stroke-linejoin="miter" fill="rgb(157, 8, 8)"
 d="M851.500,18.500 C851.500,-3.500 949.500,-5.500 951.500,18.500 C953.500,42.500 953.500,414.500 951.500,458.500 C949.500,502.500 853.500,498.500 851.500,458.500 "/>
</svg>